<svg width="40px" viewBox="0 0 2304 2304" fill="none" xmlns="http://www.w3.org/2000/svg">
    <path d="M1140.39 2.53334C1129.46 7.46667 1122.52 21.0667 1125.19 32.4C1125.72 35.2 1131.06 46.8 1136.92 58.4C1149.32 82.8 1158.12 102.8 1170.12 133.333L1178.66 155.333L1172.26 161.066C1157.59 174.4 1131.19 195.866 1112.52 209.866C985.457 305.2 835.724 363.866 667.324 384.533C623.591 390 575.191 393.333 540.391 393.333H521.591L499.724 382.8C460.924 364.133 425.457 349.733 386.791 337.333C363.057 329.6 355.724 328.266 348.657 330.666C337.857 334.133 329.324 345.733 329.191 356.8C329.191 364.266 334.791 374.933 340.924 379.066C343.591 380.933 351.591 384 358.524 386C379.857 392.133 421.057 408.133 456.124 423.866C459.591 425.466 462.791 427.333 463.191 428C464.257 429.733 461.457 484.666 459.057 508.533C443.857 661.866 391.191 798.266 300.524 919.333C271.857 957.733 244.524 988.667 207.591 1024.8C170.124 1061.33 171.591 1060.27 146.257 1069.33C91.5907 1088.67 23.0574 1119.87 9.05737 1131.6C0.390699 1138.93 -2.54264 1152.67 2.3907 1163.47C7.32403 1174.27 20.924 1181.33 31.8574 1178.8C34.3907 1178.13 49.9907 1171.07 66.524 1162.93C94.7907 1149.07 144.924 1128 149.591 1128C152.124 1128 170.124 1149.6 191.991 1179.07C296.657 1319.47 359.191 1480.53 379.724 1662.67C383.457 1695.47 385.057 1716.8 386.524 1756.67L387.724 1791.2L377.324 1814C353.057 1866.67 329.191 1933.33 329.191 1947.73C329.324 1961.6 342.657 1974.67 356.924 1974.67C363.457 1974.67 374.524 1969.2 378.391 1963.87C380.124 1961.6 383.857 1952 386.657 1942.53C393.191 1920.67 403.457 1893.47 415.991 1864.13L425.724 1841.33H435.057C447.591 1841.33 484.791 1844.67 510.524 1848C691.857 1871.73 852.924 1948 995.191 2077.33C1004.79 2086 1024.26 2104.93 1038.52 2119.6C1063.72 2145.2 1064.66 2146.4 1067.59 2155.33C1072.26 2168.93 1086.92 2206.13 1094.66 2223.87C1104.92 2247.07 1126.12 2288.27 1130.79 2294C1147.19 2313.73 1178.92 2302.27 1178.92 2276.53C1178.92 2270.93 1177.86 2267.47 1173.32 2259.07C1159.46 2233.07 1140.12 2190.13 1129.06 2160.8L1124.66 2148.93L1132.66 2141.6C1267.46 2017.6 1424.26 1945.33 1607.19 1922.8C1653.32 1917.07 1681.19 1915.47 1737.19 1915.47L1791.19 1915.33L1802.26 1921.07C1838.52 1939.73 1923.86 1971.87 1943.99 1974.27C1959.59 1976.13 1974.39 1962.93 1974.52 1947.2C1974.52 1939.73 1968.92 1929.07 1962.79 1924.93C1960.12 1923.2 1951.32 1919.73 1943.19 1917.33C1918.52 1910.27 1881.59 1895.87 1842.12 1878.13L1834.39 1874.67L1835.06 1868.93C1835.46 1865.87 1836.12 1857.33 1836.52 1850C1837.72 1830 1840.92 1801.87 1844.66 1777.33C1869.72 1614.53 1941.46 1462.27 2056.52 1328C2076.12 1305.2 2116.52 1262 2128.66 1251.07C2137.72 1242.93 2139.86 1241.6 2154.26 1236.53C2205.72 1218.4 2279.59 1184.8 2293.86 1173.07C2311.19 1158.8 2304.39 1130.13 2282.52 1125.47C2274.12 1123.6 2268.12 1125.33 2253.19 1133.47C2239.46 1140.93 2215.19 1152.4 2193.86 1161.33C2177.32 1168.4 2147.06 1180 2145.32 1180C2143.32 1180 2111.19 1141.07 2091.06 1114.4C1988.26 977.733 1928.52 825.066 1912.52 658.266C1909.46 626.133 1907.59 571.333 1908.66 546L1909.59 523.333L1916.12 510.266C1939.32 463.733 1971.72 380 1974.12 360.133C1975.06 352.133 1972.79 345.2 1967.46 339.066C1959.06 329.6 1947.59 327.066 1935.86 332.133C1926.92 336 1923.06 341.6 1917.86 358.4C1909.06 386.533 1898.12 415.2 1882.92 449.6L1873.99 469.6L1857.99 468.8C1706.52 460.666 1577.06 421.466 1452.52 346.266C1390.39 308.666 1331.86 262.4 1272.79 204L1245.06 176.666L1238.52 157.6C1218.12 98.9332 1185.32 25.0667 1172.66 9.73334C1167.72 3.86667 1159.72 0 1151.86 0C1148.52 0 1143.46 1.2 1140.39 2.53334ZM1202.92 232.666C1209.99 257.866 1216.39 284.133 1221.72 310C1224.39 322.4 1226.79 333.866 1227.19 335.466C1227.72 337.733 1224.92 340.266 1210.79 350.266C1093.06 433.866 965.191 477.466 810.524 486.8C782.924 488.4 713.191 487.733 687.857 485.466L673.857 484.133L647.057 466.4C632.257 456.666 619.057 448 617.724 447.2C615.591 445.866 616.791 445.466 624.524 444.666C700.257 437.2 744.391 430 801.857 416C943.057 381.333 1070.92 317.2 1181.86 225.466C1189.86 218.8 1196.79 213.866 1197.32 214.4C1197.72 214.933 1200.26 223.066 1202.92 232.666ZM1304.66 307.733C1442.12 422.933 1598.39 492.8 1769.86 515.866C1792.52 518.933 1830.79 522.666 1839.46 522.666C1843.19 522.666 1845.19 523.2 1845.19 524.4C1845.19 528.4 1806.79 592.266 1786.92 621.333C1777.86 634.533 1781.99 633.733 1748.52 628.4C1621.19 608.133 1510.52 557.2 1407.19 471.2C1375.06 444.533 1317.99 385.2 1292.26 351.866C1286.79 344.8 1286.66 344.133 1280.66 314.4C1277.32 297.733 1274.52 283.733 1274.52 283.2C1274.52 282.8 1276.52 284.133 1278.92 286.266C1281.32 288.266 1292.92 298 1304.66 307.733ZM1237.86 402.933C1238.26 404.666 1239.72 417.066 1241.19 430.666C1246.79 483.2 1249.99 543.6 1247.32 546.133C1244.12 549.466 1216.79 564.666 1196.52 574.666C1148.79 598 1099.72 613.6 1047.86 621.866C1013.32 627.466 996.257 628.666 953.191 628.533C911.457 628.533 889.057 626.933 852.124 621.333L835.724 618.933L822.791 606.4C808.791 592.933 780.524 567.6 762.657 552.666L751.591 543.333L787.991 542.4C915.057 539.333 1030.26 511.733 1135.86 459.2C1166.26 444 1205.06 421.466 1224.52 407.733C1230.39 403.6 1235.59 400.133 1236.12 400.133C1236.66 400 1237.46 401.333 1237.86 402.933ZM1358.12 501.6C1465.32 595.733 1587.59 655.733 1720.79 679.6C1731.99 681.6 1741.19 683.733 1741.19 684.4C1741.19 688.133 1679.86 760.266 1649.32 792.4C1647.19 794.533 1645.99 794.4 1623.86 788.8C1495.99 756.266 1394.92 683.733 1314.26 566.666L1305.59 554L1304.66 525.866C1303.86 499.333 1302.26 472.533 1300.39 453.6L1299.59 445.2L1320.66 466.266C1332.39 477.866 1349.19 493.733 1358.12 501.6ZM545.991 470.4C571.057 484.8 587.991 495.333 614.257 512.533C627.457 521.2 627.857 521.733 627.324 525.733C626.924 528.133 625.991 535.333 625.191 542C615.324 624.533 587.324 713.333 549.191 782.666C516.391 842.533 483.724 885.6 431.991 937.466C402.391 967.066 381.457 985.467 352.524 1007.47L337.857 1018.53L310.524 1024C295.591 1026.93 282.924 1029.2 282.391 1029.07C281.857 1028.8 286.791 1022.67 293.324 1015.33C415.991 878.133 489.324 717.466 511.191 538.266C513.991 516 517.191 476.4 517.191 464.933C517.191 458.4 517.724 456 518.924 456C519.991 456 532.124 462.533 545.991 470.4ZM700.657 575.466C733.857 601.733 789.191 650.533 789.191 653.466C789.191 657.333 781.457 690.266 776.391 707.6C743.191 823.466 672.791 916.933 565.724 987.067L548.524 998.4L522.524 999.2C497.991 1000.13 473.191 1001.6 452.791 1003.47L443.724 1004.4L470.124 977.866C531.057 916.933 571.591 861.333 607.591 789.333C640.791 723.066 662.524 656.4 674.524 583.733C675.991 574.666 677.457 565.333 677.991 562.933C678.391 560 679.191 558.933 680.257 559.6C681.191 560 690.257 567.2 700.657 575.466ZM1248.39 620.933C1245.99 667.333 1243.32 700.666 1239.46 733.333L1237.86 747.333L1227.19 752.933C1200.79 766.8 1164.26 778.933 1130.66 784.8C1106.52 789.2 1059.32 790.666 1032.12 788C1013.32 786.266 978.391 780.4 977.057 778.933C976.657 778.4 969.457 769.333 961.191 758.666C944.257 737.066 924.391 713.2 908.924 695.733C903.191 689.333 898.524 683.866 898.524 683.6C898.524 683.2 915.191 683.2 935.591 683.6C973.457 684.4 1003.99 683.066 1033.06 679.333C1102.52 670.4 1167.59 650.666 1226.52 620.8C1237.19 615.466 1246.52 610.933 1247.46 610.8C1248.52 610.666 1248.79 613.733 1248.39 620.933ZM1857.19 657.333C1863.59 737.6 1883.19 825.866 1911.32 901.2C1930.12 951.2 1956.39 1006.8 1981.72 1050C2006.92 1092.8 2044.66 1146.67 2075.46 1183.73L2087.99 1198.67L2084.52 1200C2072.52 1204.53 2009.59 1220 1979.46 1225.73L1962.39 1228.93L1954.66 1218.13C1873.86 1105.33 1828.26 985.733 1814.92 850.666C1811.86 818.666 1811.86 748.533 1814.92 716C1819.32 670.933 1817.46 676.933 1836.79 647.733L1853.86 622L1854.79 630C1855.19 634.4 1856.26 646.666 1857.19 657.333ZM1318.79 662C1335.19 680.8 1363.46 708.933 1380.52 723.466C1440.12 774.4 1511.59 813.333 1585.19 835.066C1593.32 837.333 1599.86 839.733 1599.86 840.266C1599.86 840.8 1591.32 848.8 1580.92 858.266C1543.86 891.466 1498.79 928 1494.79 928C1490.92 928 1463.19 918.266 1447.72 911.333C1387.59 884.666 1333.46 835.866 1296.66 775.066L1291.59 766.933L1294.39 745.066C1297.86 717.733 1300.79 687.733 1301.86 668.666C1302.66 654 1303.72 644.666 1304.39 645.466C1304.66 645.733 1311.06 653.2 1318.79 662ZM853.591 718.266C885.857 753.733 923.857 800.133 923.857 803.733C923.857 805.066 922.124 811.733 919.991 818.666C895.724 900.133 847.324 961.466 771.191 1007.07L763.191 1011.87L749.857 1010C729.857 1007.2 685.324 1002.93 666.524 1001.87C640.524 1000.4 641.057 1001.33 658.657 986.4C672.657 974.533 704.391 943.466 716.791 929.333C765.724 873.866 802.924 806.8 826.524 731.066C829.324 722.133 832.391 711.466 833.324 707.333C834.257 703.333 835.457 700 835.991 700C836.524 700 844.524 708.266 853.591 718.266ZM1760.52 858C1773.19 988.267 1815.19 1107.2 1887.99 1218L1901.06 1238L1897.46 1238.93C1887.19 1241.47 1821.32 1246.8 1775.06 1248.8L1754.92 1249.6L1743.19 1228.67C1708.92 1167.6 1687.06 1104.27 1677.19 1038.4C1668.66 981.067 1670.39 914.266 1681.99 853.333L1685.46 835.333L1704.12 815.333C1714.39 804.266 1730.39 786.4 1739.59 775.6L1756.52 755.866L1757.32 795.6C1757.86 817.466 1759.19 845.466 1760.52 858ZM1221.06 846.266C1209.46 902.533 1195.86 954 1178.52 1007.33C1168.79 1036.8 1154.79 1076.27 1153.32 1077.6C1152.79 1078.27 1149.46 1072.27 1145.86 1064.27C1135.32 1040.93 1103.59 978.266 1090.39 954.666C1075.19 927.333 1053.46 891.066 1035.99 864C1028.66 852.666 1022.92 843.2 1023.06 843.066C1023.19 842.8 1033.86 843.333 1046.66 844C1101.32 846.933 1159.99 838.533 1207.19 820.933C1215.99 817.733 1224.12 814.933 1225.32 814.8C1227.32 814.666 1226.66 818.933 1221.06 846.266ZM1288.66 857.6C1325.86 901.866 1374.39 938.8 1425.19 961.466C1433.59 965.2 1440.66 968.4 1440.92 968.666C1441.46 969.2 1390.26 1002.67 1369.46 1015.2C1358.92 1021.47 1340.12 1032.53 1327.46 1039.6C1298.92 1055.6 1297.72 1056.4 1294.52 1062.67C1284.66 1082.13 1297.06 1103.07 1318.52 1103.2C1324.79 1103.2 1327.59 1102.4 1337.86 1096.8C1369.59 1079.6 1408.66 1056.27 1442.26 1034.27C1451.19 1028.4 1458.92 1023.87 1459.19 1024.27C1459.59 1024.67 1459.32 1030.53 1458.52 1037.47C1456.79 1054 1456.79 1093.47 1458.52 1110.8C1461.86 1143.73 1469.72 1178.93 1480.39 1208C1483.59 1217.2 1486.12 1224.8 1485.99 1225.07C1485.46 1225.47 1451.59 1218.4 1425.86 1212.53C1377.32 1201.33 1314.12 1182.53 1263.19 1164.27C1223.99 1150.13 1190.52 1136.93 1190.52 1135.47C1190.52 1134.8 1195.72 1121.07 1201.99 1104.8C1230.26 1032.13 1257.06 942.8 1273.32 866.933C1275.72 855.866 1278.12 846.666 1278.52 846.666C1279.06 846.666 1283.59 851.6 1288.66 857.6ZM982.124 882.933C1023.99 946.133 1059.06 1008.53 1091.06 1077.2C1096.66 1089.2 1101.06 1099.2 1100.79 1099.47C1100.52 1099.73 1096.79 1098.53 1092.39 1096.8C1077.19 1090.67 1030.92 1074.8 1003.06 1066.13C954.524 1051.2 907.724 1039.07 852.924 1027.33L842.657 1025.2L854.924 1014.93C871.324 1001.47 892.657 979.733 905.724 963.333C927.057 936.533 948.391 900.133 959.991 870.4C962.524 863.866 964.791 858.666 965.191 858.666C965.591 858.666 973.191 869.6 982.124 882.933ZM1619.19 902.933C1617.59 909.466 1616.39 967.333 1617.32 989.6C1621.06 1071.73 1642.52 1152 1681.19 1229.33L1690.52 1248H1682.26C1661.46 1248 1562.66 1239.2 1554.39 1236.53C1550.26 1235.33 1534.52 1198.67 1525.86 1169.87C1509.06 1114.4 1507.59 1052.53 1521.72 990.667C1524.52 978.133 1525.32 976.266 1529.32 973.066C1559.59 949.2 1590.12 924.4 1602.52 913.6C1610.92 906.133 1618.26 900.133 1618.92 900.133C1619.46 900 1619.59 901.333 1619.19 902.933ZM559.057 1092.67C567.457 1109.47 577.057 1130.27 580.257 1138.67C599.457 1188 611.324 1235.87 618.124 1292C619.991 1307.33 620.524 1321.47 620.524 1360C620.391 1409.07 619.324 1425.87 613.857 1462.4L611.991 1474.8L600.257 1487.47C581.191 1508.13 560.257 1531.73 547.991 1546.53L536.524 1560.4L536.257 1552.53C533.724 1487.6 531.591 1458.4 526.391 1421.33C509.324 1299.07 466.257 1182.4 400.657 1080.8C396.524 1074.4 393.191 1068.8 393.191 1068.13C393.191 1065.73 471.324 1058 513.857 1056.27L537.857 1055.2L540.924 1058.67C542.524 1060.53 550.791 1075.73 559.057 1092.67ZM641.857 1056.67C677.191 1058.4 739.457 1064.27 741.191 1066.27C743.057 1068.13 756.791 1100.27 761.191 1112.67C777.324 1158.67 784.791 1213.33 781.457 1263.07C779.991 1285.73 776.657 1311.6 773.191 1327.47C771.857 1333.87 771.191 1334.67 758.791 1344.13C739.457 1359.07 709.057 1384.13 691.591 1399.6C683.057 1407.07 675.857 1413.33 675.591 1413.33C675.324 1413.33 675.324 1394.53 675.591 1371.47C676.124 1327.33 674.924 1302.8 670.391 1268.8C661.191 1199.87 640.391 1131.33 609.991 1071.07C605.857 1062.8 602.524 1055.73 602.524 1055.2C602.524 1054.8 607.724 1054.8 614.257 1055.2C620.657 1055.6 633.057 1056.27 641.857 1056.67ZM835.857 1080.67C906.124 1094.4 984.524 1116.27 1053.06 1141.2C1089.72 1154.67 1117.19 1165.6 1117.19 1166.8C1117.19 1167.47 1114.12 1175.6 1110.39 1184.93C1076.26 1270.4 1049.06 1358.27 1031.19 1440.67C1027.86 1456 1024.92 1469.2 1024.79 1469.87C1024.52 1470.4 1020.79 1466.53 1016.52 1461.2C977.057 1412.27 924.391 1371.47 870.257 1347.73C863.057 1344.53 857.191 1341.6 857.191 1341.2C857.191 1338.27 939.724 1286.93 979.191 1265.33C1008.12 1249.47 1010.79 1247.73 1014.26 1241.6C1025.06 1222.4 1011.72 1200 989.457 1200C980.391 1200 913.724 1237.6 856.124 1275.07C844.924 1282.4 835.591 1288.13 835.324 1287.87C835.191 1287.6 835.457 1282.53 835.991 1276.67C837.457 1260.93 837.324 1217.6 835.724 1200C832.657 1165.47 824.791 1129.07 813.324 1095.87C809.591 1085.07 806.524 1076 806.524 1075.6C806.524 1075.2 807.591 1075.2 808.924 1075.47C810.124 1075.73 822.257 1078.13 835.857 1080.67ZM348.924 1101.6C425.457 1218.27 466.124 1338.8 478.791 1487.33C480.791 1511.33 480.924 1598.67 478.924 1622.4L477.457 1638.67L461.591 1663.07C452.791 1676.4 444.257 1689.73 442.391 1692.67L439.191 1698L438.257 1690.67C437.724 1686.67 435.991 1671.87 434.524 1658C412.791 1458.53 341.057 1279.87 221.724 1127.07C214.124 1117.33 207.857 1109.07 207.857 1108.67C207.857 1106.4 318.924 1078.27 331.324 1077.47C332.257 1077.33 340.124 1088.27 348.924 1101.6ZM1235.32 1212.53C1306.52 1238.53 1381.99 1260.53 1447.46 1274.4C1457.06 1276.4 1464.92 1278.4 1465.06 1279.07C1465.19 1279.6 1458.12 1286 1449.59 1293.2C1407.19 1328.67 1372.92 1371.87 1348.79 1419.73L1337.86 1441.47L1334.92 1437.73C1323.06 1422.4 1287.32 1364.27 1264.66 1323.33C1244.26 1286.4 1202.26 1201.33 1204.39 1201.33C1204.66 1201.33 1218.66 1206.4 1235.32 1212.53ZM1160.52 1238.67C1170.26 1260.93 1198.26 1317.2 1214.12 1346.13C1232.92 1380.4 1252.39 1413.07 1272.26 1444C1279.99 1456 1286.26 1466.13 1285.99 1466.4C1285.72 1466.67 1280.12 1466 1273.72 1465.07C1266.12 1464 1248.52 1463.33 1224.52 1463.33C1192.66 1463.47 1184.39 1463.87 1167.99 1466.4C1144.66 1470.13 1119.06 1476.53 1098.52 1484C1090.12 1487.07 1081.86 1489.87 1080.26 1490.27C1077.46 1490.93 1077.59 1490.4 1083.19 1463.07C1098.92 1386.53 1122.92 1304.93 1151.86 1228.8C1153.72 1223.87 1154.52 1224.8 1160.52 1238.67ZM2028.26 1276.27C1936.12 1379.87 1867.06 1497.2 1826.12 1620C1805.72 1681.2 1790.79 1750.67 1784.52 1814C1781.59 1844.67 1781.46 1845.47 1780.66 1846.27C1779.06 1847.87 1726.39 1816.8 1692.52 1794.27C1681.59 1786.93 1672.26 1780.8 1672.12 1780.53C1671.32 1780 1675.72 1752.93 1679.99 1732C1713.99 1566.13 1804.92 1420.8 1950.66 1299.73L1967.46 1285.73L1991.99 1280.93C2005.46 1278.13 2018.39 1275.47 2020.52 1274.8C2022.79 1274.13 2025.99 1273.47 2027.72 1273.47L2030.92 1273.33L2028.26 1276.27ZM1573.19 1295.2C1587.46 1297.07 1611.19 1299.47 1625.86 1300.67C1640.52 1301.73 1655.99 1303.2 1660.26 1303.73L1667.86 1304.67L1653.59 1316.67C1635.06 1332.27 1599.99 1367.2 1583.59 1386.53C1549.72 1426.13 1519.32 1472.4 1498.92 1516C1489.46 1535.87 1475.86 1570.27 1470.52 1587.6C1468.26 1595.2 1465.86 1601.33 1465.46 1601.33C1461.72 1601.2 1377.19 1500.53 1377.19 1496.13C1377.19 1492.4 1389.06 1462.8 1397.32 1445.87C1425.46 1388 1470.39 1339.87 1533.72 1299.73C1540.39 1295.47 1546.12 1292 1546.52 1292C1546.92 1292 1558.92 1293.47 1573.19 1295.2ZM1843.72 1323.6C1782.66 1385.33 1738.52 1444.13 1700.12 1515.47C1665.99 1578.8 1638.39 1656.53 1625.06 1726.27C1623.32 1735.33 1621.46 1742.67 1620.79 1742.67C1619.32 1742.67 1577.99 1709.07 1559.86 1693.33C1552.12 1686.67 1537.99 1673.6 1528.26 1664.53L1510.66 1648L1514.66 1632.93C1544.92 1518.67 1608.79 1422.53 1707.19 1343.33C1717.46 1335.07 1733.19 1323.2 1742.12 1317.07L1758.26 1305.73L1785.46 1304.67C1800.39 1304.13 1822.12 1302.93 1833.86 1302C1845.59 1301.2 1857.86 1300.27 1861.19 1300.13L1867.19 1300L1843.72 1323.6ZM824.657 1388.8C894.391 1413.87 950.924 1458.93 993.724 1523.33C1013.19 1552.53 1011.59 1546.4 1008.12 1575.6C1006.52 1589.33 1004.26 1612.4 1003.19 1626.67C1001.99 1640.93 1000.66 1657.07 1000.12 1662.27L999.191 1672L986.524 1657.07C959.591 1625.33 925.591 1592.8 893.457 1568.27C877.991 1556.27 843.991 1533.87 826.924 1524.13C795.324 1506.27 752.791 1488 714.924 1476C705.191 1472.93 697.591 1469.87 697.991 1469.2C699.191 1467.07 737.057 1433.33 753.191 1419.73C790.257 1388.8 800.391 1381.33 803.991 1381.87C805.991 1382.27 815.324 1385.33 824.657 1388.8ZM671.057 1520.53C792.257 1551.6 893.991 1621.47 972.524 1727.33C978.524 1735.33 986.791 1747.07 990.791 1753.33L998.257 1764.67L999.057 1788C999.991 1813.07 1003.59 1866.27 1004.52 1868.93C1005.99 1873.07 1001.86 1869.73 990.257 1857.33C975.457 1841.2 945.457 1813.47 922.524 1794.27C822.924 1711.33 705.057 1655.33 579.857 1631.47C569.991 1629.6 560.524 1627.73 558.791 1627.33C555.991 1626.67 556.257 1626 564.124 1615.73C578.924 1596.67 607.724 1562.53 625.724 1542.93C635.324 1532.4 644.657 1522.13 646.524 1519.87C648.391 1517.73 650.524 1516 651.457 1516C652.391 1516 661.191 1518.13 671.057 1520.53ZM1257.19 1518.8C1275.86 1520.53 1297.99 1524.13 1318.12 1528.93L1333.19 1532.53L1355.72 1560.53C1368.12 1576 1385.59 1596.93 1394.52 1607.07C1403.46 1617.33 1410.39 1625.87 1410.12 1626.13C1409.86 1626.53 1403.32 1626.13 1395.72 1625.33C1371.32 1622.93 1322.12 1622.13 1297.86 1623.87C1216.12 1629.6 1149.72 1647.6 1079.46 1682.8L1055.46 1694.93L1056.26 1673.07C1057.32 1647.2 1060.26 1611.6 1063.86 1581.33C1066.12 1561.73 1066.66 1559.2 1069.46 1557.07C1074.66 1553.07 1105.06 1539.87 1123.19 1533.73C1141.86 1527.47 1171.99 1520.8 1191.19 1518.93C1208.39 1517.2 1239.32 1517.07 1257.19 1518.8ZM539.857 1680C660.124 1699.33 763.724 1742.93 859.191 1814.27C909.191 1851.6 961.724 1903.2 1006.39 1958.8C1018.79 1974.13 1019.72 1975.73 1021.19 1984C1022.12 1988.8 1024.92 2001.87 1027.32 2013.2C1029.86 2024.53 1031.59 2034.13 1031.19 2034.53C1030.79 2034.8 1027.99 2032.8 1024.79 2029.73C998.657 2004.8 948.257 1966 905.857 1937.87C778.791 1853.87 631.991 1802.4 483.191 1789.87C469.324 1788.67 456.791 1787.33 455.591 1786.8C453.724 1786.13 455.324 1782.53 465.991 1763.47C488.657 1723.33 517.991 1677.47 521.191 1677.33C522.257 1677.33 530.657 1678.53 539.857 1680ZM1379.32 1678.67C1403.72 1680.67 1424.92 1683.47 1451.86 1688.27L1475.19 1692.4L1486.52 1703.2C1499.86 1715.87 1529.46 1742.4 1544.26 1754.67L1554.66 1763.33L1506.26 1764.27C1457.59 1765.07 1432.26 1766.93 1396.52 1772.13C1284.66 1788.27 1183.72 1826.67 1091.86 1887.87C1079.06 1896.4 1067.72 1903.47 1066.92 1903.73C1065.99 1904 1065.19 1903.33 1065.19 1902.4C1065.19 1901.33 1064.39 1893.47 1063.32 1884.67C1060.12 1858.93 1057.32 1822.93 1055.86 1790.67C1054.52 1762.67 1054.66 1760.53 1056.79 1758.93C1063.46 1753.87 1090.92 1738.4 1109.19 1729.2C1167.86 1700 1226.39 1684 1296.52 1678.27C1309.46 1677.2 1363.72 1677.47 1379.32 1678.67ZM1570.79 1820C1581.99 1820.8 1601.72 1822.67 1614.66 1824L1638.26 1826.53L1661.86 1842C1674.79 1850.53 1686.26 1857.87 1687.32 1858.27C1691.72 1859.87 1688.52 1861.33 1680.66 1861.33C1669.72 1861.33 1627.19 1864.8 1604.52 1867.47C1419.59 1889.33 1258.39 1959.73 1120.52 2078.8C1112.79 2085.47 1106.12 2090.67 1105.72 2090.4C1102.92 2087.6 1075.86 1976.67 1075.86 1968C1075.86 1967.33 1083.19 1961.2 1092.26 1954.53C1199.19 1874.67 1318.79 1830.4 1455.19 1820.13C1476.92 1818.53 1547.32 1818.4 1570.79 1820Z" fill="#39FF14"/>
</svg>
