<svg width="40px" viewBox="0 0 70 75" fill="none" xmlns="http://www.w3.org/2000/svg">
    <path d="M19.3747 25.3843L2.4552 24.7543L19.3747 47.4323V72L31.2811 58.1413L34.4143 72L41.3074 58.1413L49.4539 70.7401V38.6131L67.0001 24.7543L46.9473 23.4944V11.5255C46.9473 5.84081 43.2501 1 34.7276 1C26.2052 1 19.3747 1.00006 19.3747 11.5255V25.3843Z"
          stroke="white" stroke-width="2"/>
    <path d="M37.0809 13.0295C36.1352 13.615 35.3808 14.9436 34.8855 16.9364C33.737 21.485 34.4801 27.3734 36.473 29.5463C37.3399 30.4921 38.2631 30.5146 39.1638 29.6139C40.1096 28.6681 40.8414 26.7429 41.2017 24.2997C41.3706 23.095 41.3706 20.0326 41.2017 18.8054C40.7739 15.8893 39.7493 13.5925 38.5896 12.9845C38.1618 12.7706 37.4863 12.7818 37.0809 13.0295Z"
          fill="white"/>
    <path d="M28.0513 14.4036C26.9817 15.0454 26.2612 17.3422 26.1373 20.4384C26.0135 23.8048 26.6327 26.6308 27.7474 27.7454C28.2202 28.2183 28.5918 28.3083 29.0984 28.0719C30.4157 27.4414 31.2601 24.3114 31.1363 20.5397C31.0237 17.2859 30.2693 14.9328 29.1435 14.3473C28.7156 14.1221 28.4792 14.1334 28.0513 14.4036Z"
          fill="white"/>
</svg>